<?xml version="1.0" encoding="UTF-8"?>
<!--Generator: Apple Native CoreSVG 341-->
<!DOCTYPE svg
PUBLIC "-//W3C//DTD SVG 1.1//EN"
       "http://www.w3.org/Graphics/SVG/1.1/DTD/svg11.dtd">
<svg version="1.1" xmlns="http://www.w3.org/2000/svg" xmlns:xlink="http://www.w3.org/1999/xlink" viewBox="0 0 361.035 225.684">
 <defs>
  <linearGradient id="gradient1" x1="5" y1="0.195312" x2="5" y2="225.684" gradientUnits="userSpaceOnUse">
   <stop offset="0" stop-color="white" stop-opacity="1"/>
   <stop offset="1" stop-color="#e2e2e2" stop-opacity="1"/>
  </linearGradient>
 </defs>
 <g>
  <rect height="225.684" opacity="0" width="361.035" x="0" y="0"/>
  <path d="M76.6602 87.5C76.6602 82.0312 80.0781 78.5156 85.9375 78.5156L111.328 78.5156L111.328 53.2227C111.328 47.5586 114.648 44.043 120.215 44.043C125.586 44.043 128.906 47.5586 128.906 53.2227L128.906 78.5156L153.32 78.5156C159.473 78.5156 163.184 82.0312 163.184 87.5C163.184 93.2617 159.473 96.7773 153.32 96.7773L128.906 96.7773L128.906 122.168C128.906 127.832 125.586 131.348 120.215 131.348C114.648 131.348 111.328 127.832 111.328 122.168L111.328 96.7773L85.9375 96.7773C80.0781 96.7773 76.6602 93.2617 76.6602 87.5ZM260.547 85.5469C250.684 85.5469 242.48 77.5391 242.48 67.4805C242.48 57.4219 250.684 49.4141 260.547 49.4141C270.605 49.4141 278.711 57.4219 278.711 67.4805C278.711 77.5391 270.605 85.5469 260.547 85.5469ZM221.777 124.023C211.816 124.023 203.711 116.016 203.711 105.957C203.711 95.9961 211.816 87.8906 221.777 87.8906C231.836 87.8906 239.941 95.9961 239.941 105.957C239.941 116.016 231.836 124.023 221.777 124.023ZM46.582 225.684C62.793 225.684 74.8047 219.531 85.1562 206.738L108.398 178.613C111.719 174.609 115.43 172.754 119.434 172.754L241.602 172.754C245.605 172.754 249.316 174.609 252.637 178.613L275.781 206.738C286.23 219.531 298.242 225.684 314.453 225.684C342.383 225.684 361.035 207.031 361.035 178.418C361.035 166.113 358.105 151.855 353.223 135.449C345.508 109.668 332.031 74.6094 319.043 47.168C308.398 24.9023 303.027 15.1367 277.148 9.27734C253.027 3.71094 220.02 0.195312 180.469 0.195312C141.016 0.195312 108.008 3.71094 83.8867 9.27734C58.0078 15.1367 52.6367 24.9023 41.9922 47.168C29.0039 74.6094 15.5273 109.668 7.8125 135.449C2.92969 151.855 0 166.113 0 178.418C0 207.031 18.6523 225.684 46.582 225.684Z" fill="url(#gradient1)"/>
 </g>
</svg>
